<?xml version="1.0" encoding="utf-8"?>
<!-- Generator: Adobe Illustrator 22.0.1, SVG Export Plug-In . SVG Version: 6.00 Build 0)  -->
<svg version="1.1" id="Layer_1" xmlns="http://www.w3.org/2000/svg" xmlns:xlink="http://www.w3.org/1999/xlink" x="0px" y="0px"
	 viewBox="0 0 425.2 425.2" style="enable-background:new 0 0 425.2 425.2;" xml:space="preserve">
<style type="text/css">
	.st0{fill:#010101;}
</style>
<path id="XMLID_43_" class="st0" d="M301.3,175.4V62L227.4,0l-10.1,18.8L191,2.4h-44.6v45.8l-21.9,10.4v116L107,267l-0.1,158.1
	h213.9V252.9L301.3,175.4z M263.6,197.8l-4.6,7.5c-3.4-2.1-6.9-3.3-10.4-3.9v3h-8.8v-3.4c-9.8,0.6-17.5,4.5-17.7,4.5l-4-7.8
	C219.2,197.1,243.2,185.2,263.6,197.8z M241.3,266.3l-1.8,8.6c-0.3-0.1-28.3-5.9-51.6,0l-2.1-8.5C211.1,260,240.1,266.1,241.3,266.3
	z M228.9,231.7v-5h8.8v13.7h-48.4v-13.7h8.8v5H228.9z M206,197.8l-4.6,7.5c-4.5-2.8-9.3-4-13.9-4.3v3.4h-8.8v-3.1
	c-8.1,1.1-14.1,4.1-14.2,4.2l-4-7.8C161.6,197.1,185.6,185.2,206,197.8z M270.1,323.5H162.3l-8-18.2l8-3.5l5.7,12.9h95.6l3.8-12.4
	l8.4,2.6L270.1,323.5z"/>
</svg>
